<svg width="20" height="18" viewBox="0 0 20 18" fill="none" xmlns="http://www.w3.org/2000/svg">
<path id="&#238;&#160;&#141;" fill-rule="evenodd" clip-rule="evenodd" d="M2.5 0V2.5H0V4.18H2.5V6.68H4.18V4.18H6.68V2.5H4.18V0H2.5ZM5 7.5V5H7.5V2.5H13.32L14.84 4.18H17.5C17.9533 4.18 18.3467 4.34666 18.68 4.68C19.0133 5.01334 19.18 5.40666 19.18 5.86V15.86C19.18 16.3133 19.0133 16.7 18.68 17.02C18.3467 17.34 17.9533 17.5 17.5 17.5H4.18C3.72666 17.5 3.33333 17.34 3 17.02C2.66667 16.7 2.5 16.3133 2.5 15.86V7.5H5ZM12.92 14.45C12.28 14.8167 11.58 15 10.82 15C10.06 15 9.36334 14.8167 8.73 14.45C8.09666 14.0833 7.59667 13.5833 7.23 12.95C6.86333 12.3167 6.68 11.62 6.68 10.86C6.68 10.1 6.86333 9.4 7.23 8.76C7.59667 8.12 8.1 7.61334 8.74 7.24C9.38 6.86666 10.0767 6.68 10.83 6.68C11.5833 6.68 12.28 6.86666 12.92 7.24C13.56 7.61334 14.0667 8.12 14.44 8.76C14.8133 9.4 15 10.0967 15 10.85C15 11.6033 14.8133 12.3 14.44 12.94C14.0667 13.58 13.56 14.0833 12.92 14.45ZM8.52 9.51C8.28 9.93 8.16 10.38 8.16 10.86C8.16 11.34 8.28 11.7833 8.52 12.19C8.76 12.5967 9.08333 12.92 9.49 13.16C9.89667 13.4 10.34 13.52 10.82 13.52C11.3 13.52 11.75 13.4 12.17 13.16C12.59 12.92 12.92 12.5967 13.16 12.19C13.4 11.7833 13.52 11.34 13.52 10.86C13.52 10.38 13.3967 9.93334 13.15 9.52C12.9033 9.10666 12.5733 8.77667 12.16 8.53C11.7467 8.28333 11.3 8.16 10.82 8.16C10.34 8.16 9.89667 8.28 9.49 8.52C9.08333 8.76 8.76 9.09 8.52 9.51Z" fill="#999999"/>
</svg>
