<svg width="198" height="64" viewBox="0 0 198 64" fill="none" xmlns="http://www.w3.org/2000/svg">
<path d="M145.892 31.0139L140.117 32.105C139.584 29.6228 138.098 28.3953 135.687 28.3953C132.267 28.3953 130.276 31.0139 130.276 35.5146C130.276 39.9608 132.351 42.6612 135.827 42.6612C137.369 42.6612 138.687 42.0338 139.5 40.9427C139.977 40.2881 140.173 39.7425 140.341 38.5969L146.173 39.4425C145.64 41.761 145.023 43.0976 143.846 44.4342C142.107 46.3709 139.388 47.4074 135.995 47.4074C132.575 47.4074 129.687 46.3709 127.697 44.4069C125.622 42.3611 124.444 39.1697 124.444 35.5146C124.444 31.8049 125.622 28.6681 127.837 26.5405C129.771 24.7129 132.603 23.7037 135.883 23.7037C139.5 23.7037 142.332 24.9039 144.154 27.277C145.051 28.3953 145.528 29.4046 145.892 31.0139Z" fill="white"/>
<path d="M197.25 31.0139L191.475 32.105C190.942 29.6228 189.456 28.3953 187.045 28.3953C183.624 28.3953 181.634 31.0139 181.634 35.5146C181.634 39.9608 183.709 42.6612 187.185 42.6612C188.727 42.6612 190.045 42.0338 190.858 40.9427C191.335 40.2881 191.531 39.7425 191.699 38.5969L197.531 39.4425C196.998 41.761 196.381 43.0976 195.204 44.4342C193.465 46.3709 190.746 47.4074 187.353 47.4074C183.933 47.4074 181.045 46.3709 179.054 44.4069C176.98 42.3611 175.802 39.1697 175.802 35.5146C175.802 31.8049 176.98 28.6681 179.195 26.5405C181.129 24.7129 183.961 23.7037 187.241 23.7037C190.858 23.7037 193.69 24.9039 195.512 27.277C196.409 28.3953 196.886 29.4046 197.25 31.0139Z" fill="white"/>
<path fill-rule="evenodd" clip-rule="evenodd" d="M56.2137 41.3957C56.4292 41.8682 56.6502 42.3529 56.8713 42.8494C57.0804 43.3103 57.2898 43.8269 57.4991 44.3432L57.4994 44.3437L57.4994 44.3439C57.6032 44.5999 57.707 44.8558 57.8107 45.1049C58.6249 47.4237 58.8752 49.6154 58.3777 51.8077C57.688 56.4439 54.6189 60.4518 50.233 62.2073C48.6671 62.8969 46.9135 63.2099 45.1593 63.2099C44.658 63.2099 44.0309 63.1479 43.5296 63.0841C41.4625 62.8337 39.3334 62.1453 37.265 60.955C34.7591 59.5136 32.2532 57.4471 29.497 54.44C26.7408 57.4471 24.2975 59.5136 21.7291 60.955C19.6613 62.1453 17.5316 62.8337 15.4638 63.0841C14.9619 63.1473 14.336 63.2099 13.8347 63.2099C12.0811 63.2099 10.3895 62.8969 8.76043 62.2073C4.43713 60.4518 1.30542 56.5065 0.61637 51.8077C0.302199 49.5515 0.553161 47.3586 1.368 45.0411C1.68092 44.2269 1.99384 43.4752 2.30677 42.7856C2.52957 42.2849 2.7525 41.7964 2.96989 41.3201L2.96992 41.3201L2.97001 41.3199C3.24169 40.7246 3.50473 40.1482 3.74808 39.5906L3.81129 39.4661C8.13397 30.0691 12.8321 20.5469 17.6561 11.1506L17.8445 10.7738C18.3573 9.79842 18.8582 8.81683 19.3471 7.82925C19.973 6.70086 20.6627 5.51051 21.6027 4.38337C23.6692 2.0033 26.488 0.624573 29.6209 0.624573C32.6901 0.624573 35.5721 2.0033 37.5766 4.50916C38.5008 5.54924 39.1048 6.6409 39.6848 7.68905C39.734 7.77805 39.7831 7.86673 39.8322 7.95504C40.3198 8.94324 40.8208 9.92486 41.3348 10.8996L41.5225 11.2764C46.4097 20.6727 51.0447 30.1943 55.368 39.5919L55.4306 39.6545C55.6754 40.2151 55.9401 40.7956 56.2137 41.3957ZM106.174 16.3501C106.174 18.6056 104.356 20.4218 102.101 20.4218C99.8452 20.4218 98.029 18.6056 98.029 16.3501C98.029 14.0945 99.7833 12.2783 102.101 12.2783C104.42 12.3409 106.174 14.1577 106.174 16.3501ZM89.3837 24.5573V25.5599C89.3837 25.5599 87.4423 23.0528 83.3074 23.0528C76.4795 23.0528 71.1536 28.2529 71.1536 35.457C71.1536 42.5991 76.4169 47.8611 83.3074 47.8611C87.5049 47.8611 89.3837 45.2927 89.3837 45.2927V46.3572C89.3837 46.8585 89.7604 47.2334 90.2611 47.2334H95.3348V23.6774H90.2611C89.7604 23.6793 89.3837 24.1186 89.3837 24.5573ZM84.31 42.2236C86.5649 42.2236 88.4449 41.0332 89.3837 39.6545V31.2595C88.5075 29.9439 86.503 28.691 84.31 28.691C80.3009 28.691 77.2305 31.1969 77.2305 35.457C77.2305 39.7177 80.3009 42.2236 84.31 42.2236ZM99.0942 23.6793H105.108V47.2353H99.0942V23.6793ZM171.732 47.2979V33.2653C171.732 29.3181 170.917 27.0632 168.788 25.309C167.033 23.8057 164.84 23.0528 162.209 23.0528C159.891 23.0528 157.574 23.7425 155.82 25.5599V24.5573C155.82 24.1186 155.443 23.6799 154.942 23.6799H150.183V47.2359H156.195V30.822C157.387 29.4433 159.267 28.5033 161.084 28.5033C164.464 28.5033 165.717 30.0704 165.717 33.9537V47.2979H171.732ZM120.269 23.0522C122.085 23.0522 123.025 23.3664 123.025 23.3664V28.9413C123.025 28.9413 118.013 27.2497 114.882 30.8214V47.2972H108.867V23.6793H113.942C114.443 23.6793 114.818 24.118 114.818 24.5567V25.5593C115.947 24.2432 118.39 23.0522 120.269 23.0522ZM29.5577 48.3624C26.1744 44.1023 23.9815 40.0932 23.2305 36.7112C22.9176 35.2698 22.8544 34.0169 23.0427 32.8891C23.1673 31.8866 23.544 31.0091 24.0453 30.2575C25.2357 28.5671 27.2402 27.5013 29.5584 27.5013C31.8771 27.5013 33.9442 28.5039 35.072 30.2575C35.5733 31.0091 35.9488 31.8872 36.0752 32.8891C36.2624 34.0175 36.1998 35.3324 35.8869 36.7112C35.1327 40.0306 32.9398 44.0404 29.5577 48.3624ZM48.8524 58.6375C51.9215 57.3845 54.1145 54.5645 54.5525 51.307C54.8035 49.6786 54.6158 48.1115 54.1157 46.4843C53.9852 46.0483 53.7938 45.6128 53.5841 45.1357C53.4922 44.9267 53.3968 44.7096 53.3015 44.481C53.0515 43.9804 52.8172 43.4493 52.583 42.9181C52.3474 42.3841 52.1118 41.85 51.8602 41.3468V41.2842C47.465 31.8016 42.8909 22.4029 38.1405 13.0932L37.9521 12.7164C37.7069 12.256 37.4613 11.7803 37.2156 11.3041C36.9602 10.8093 36.7046 10.3141 36.4489 9.83507C35.9476 8.83435 35.3843 7.89433 34.6946 7.07761C33.3791 5.5756 31.6255 4.76013 29.6829 4.76013C27.7403 4.76013 25.9867 5.5756 24.6712 7.07761C23.9815 7.89246 23.4182 8.83247 22.9169 9.83507C22.6739 10.2914 22.4307 10.7625 22.1873 11.2338C21.9294 11.7335 21.6713 12.2334 21.413 12.7164L21.2253 13.0932C16.4013 22.3644 11.7657 31.8866 7.44366 41.2216L7.38045 41.3461C6.87853 42.4107 6.37848 43.4765 5.93977 44.4791C5.8437 44.7098 5.74751 44.9287 5.65492 45.1395C5.44591 45.6151 5.25523 46.0491 5.12555 46.4837C4.49846 48.2379 4.37392 49.8037 4.56167 51.3696C4.99976 54.6271 7.1927 57.4471 10.2618 58.7001C11.7025 59.2633 13.3322 59.5143 15.0232 59.3259C16.5891 59.1388 18.1543 58.6375 19.7834 57.6975C22.0389 56.4445 24.357 54.5019 26.9254 51.6199C22.8537 46.5456 20.2853 41.8468 19.3459 37.7131C18.8446 35.8331 18.7826 34.0169 19.033 32.3872C19.2833 30.8214 19.8478 29.3801 20.7246 28.1271C22.6666 25.3709 25.9247 23.6793 29.5571 23.6793C33.1895 23.6793 36.4476 25.3071 38.3908 28.1271C39.2676 29.3801 39.8322 30.8214 40.0819 32.3872C40.2709 34.0169 40.2077 35.7705 39.7689 37.7131C38.8289 41.8468 36.3231 46.4837 32.1888 51.5573C34.8204 54.44 37.0753 56.3807 39.3309 57.6349C40.9587 58.5736 42.5258 59.0749 44.0916 59.2633C45.7194 59.4517 47.3491 59.2633 48.8524 58.6375Z" fill="white"/>
</svg>
